<?xml version="1.0" encoding="utf-8"?>
<!-- Generator: Adobe Illustrator 23.0.5, SVG Export Plug-In . SVG Version: 6.00 Build 0)  -->
<svg version="1.1" id="Layer_1" xmlns="http://www.w3.org/2000/svg" xmlns:xlink="http://www.w3.org/1999/xlink" x="0px" y="0px"
	 viewBox="0 0 244 64" style="enable-background:new 0 0 244 64;" xml:space="preserve">
<style type="text/css">
	.st0{fill-rule:evenodd;clip-rule:evenodd;fill:#FFFFFF;}
</style>
<title>uiLogos</title>
<desc>Created with Sketch.</desc>
<g>
	<g id="Landing-Page" transform="translate(-598.000000, -80.000000)">
		<g id="uiLogos" transform="translate(598.000000, 80.000000)">
			<path id="ui" class="st0" d="M23.8,15.6h8.8v34.3h-8.8V46c-2.1,3.2-5.6,4.8-10.2,4.8c-3.7,0-6.8-1.3-9.3-3.8s-3.7-6-3.7-10.4v-21
				h8.8v19.9c0,2.3,0.6,4,1.9,5.2c1.2,1.2,2.9,1.8,4.9,1.8c2.3,0,4.1-0.7,5.5-2.1c1.4-1.4,2.1-3.5,2.1-6.4V15.6z M45.1,11.5
				c-1.5,0-2.7-0.5-3.8-1.6s-1.6-2.3-1.6-3.8s0.5-2.7,1.6-3.8s2.3-1.6,3.8-1.6c1.5,0,2.8,0.5,3.9,1.6c1.1,1.1,1.6,2.4,1.6,3.8
				S50.1,8.8,49,9.9C47.9,11,46.6,11.5,45.1,11.5z M40.7,49.9V15.6h8.8v34.3H40.7z"/>
			<path id="Logos" class="st0" d="M67.4,44.3h21.9v4.5H62.6v-48h4.8V44.3z M122.5,44.6c-3.5,3.4-7.7,5.1-12.8,5.1
				c-5,0-9.3-1.7-12.8-5.2c-3.5-3.5-5.2-7.7-5.2-12.8s1.7-9.3,5.2-12.8s7.8-5.2,12.8-5.2c5,0,9.3,1.7,12.8,5.2
				c3.5,3.5,5.2,7.7,5.2,12.8S126,41.1,122.5,44.6z M100.2,41.4c2.6,2.6,5.8,3.9,9.6,3.9s7-1.3,9.6-3.9c2.6-2.6,3.9-5.8,3.9-9.6
				s-1.3-7-3.9-9.6c-2.6-2.6-5.8-3.9-9.6-3.9s-7,1.3-9.6,3.9s-3.9,5.8-3.9,9.6S97.6,38.7,100.2,41.4z M164.8,14.6h4.5v32.9
				c0,4.9-1.7,8.8-5.1,11.7c-3.4,2.8-7.4,4.3-12.1,4.3c-8,0-13.5-2.8-16.2-8.4l4-2.3c2.1,4.2,6.1,6.2,12.3,6.2c3.9,0,7-1,9.3-3.1
				c2.3-2.1,3.4-4.9,3.4-8.4v-5.3c-3.2,5-7.8,7.5-13.8,7.5c-4.9,0-9.1-1.7-12.5-5.2c-3.5-3.5-5.2-7.7-5.2-12.8s1.7-9.3,5.2-12.8
				s7.6-5.2,12.5-5.2c6.1,0,10.7,2.5,13.8,7.5V14.6z M141.7,41.4c2.6,2.6,5.8,3.9,9.6,3.9s7-1.3,9.6-3.9c2.6-2.6,3.9-5.8,3.9-9.6
				s-1.3-7-3.9-9.6c-2.6-2.6-5.8-3.9-9.6-3.9s-7,1.3-9.6,3.9s-3.9,5.8-3.9,9.6S139.1,38.7,141.7,41.4z M207.7,44.6
				c-3.5,3.4-7.7,5.1-12.8,5.1c-5,0-9.3-1.7-12.8-5.2c-3.5-3.5-5.2-7.7-5.2-12.8s1.7-9.3,5.2-12.8s7.8-5.2,12.8-5.2
				c5,0,9.3,1.7,12.8,5.2c3.5,3.5,5.2,7.7,5.2,12.8S211.2,41.1,207.7,44.6z M185.3,41.4c2.6,2.6,5.8,3.9,9.6,3.9s7-1.3,9.6-3.9
				c2.6-2.6,3.9-5.8,3.9-9.6s-1.3-7-3.9-9.6c-2.6-2.6-5.8-3.9-9.6-3.9s-7,1.3-9.6,3.9c-2.6,2.6-3.9,5.8-3.9,9.6
				S182.7,38.7,185.3,41.4z M223.4,23.6c0,1.6,0.7,2.8,2.1,3.7c1.4,0.9,3,1.6,5,2.1c2,0.5,3.9,1.1,5.9,1.7c2,0.6,3.6,1.6,5,3.1
				c1.4,1.4,2.1,3.3,2.1,5.7c0,2.9-1.2,5.3-3.5,7.1c-2.3,1.8-5.3,2.7-8.9,2.7c-3.3,0-6.1-0.7-8.4-2.2c-2.3-1.5-3.9-3.4-4.8-5.7
				l3.8-2.3c0.6,1.8,1.8,3.2,3.5,4.2c1.7,1,3.6,1.5,5.9,1.5c2.2,0,4.1-0.4,5.6-1.3s2.3-2.3,2.3-4.1c0-1.6-0.7-2.8-2.1-3.7
				s-3-1.6-5-2.1c-2-0.5-3.9-1.1-5.9-1.7c-2-0.6-3.6-1.6-5-3.1s-2.1-3.3-2.1-5.7c0-2.8,1.1-5.1,3.3-7c2.2-1.9,5-2.8,8.4-2.8
				c2.8,0,5.2,0.6,7.3,1.9s3.7,3,4.7,5.1l-3.8,2.2c-1.3-3.2-4.1-4.8-8.2-4.8c-2,0-3.7,0.5-5.1,1.4C224.1,20.5,223.4,21.8,223.4,23.6
				z"/>
		</g>
	</g>
</g>
</svg>
